<svg width="32.781097" height="31.345215" viewBox="0 0 32.7811 31.3452" fill="none" xmlns="http://www.w3.org/2000/svg" xmlns:xlink="http://www.w3.org/1999/xlink">
	<desc>
			Created with Pixso.
	</desc>
	<defs/>
	<path d="M24.24 2.19C23.98 0.94 22.84 0 21.47 0C21.16 0 20.91 0.24 20.91 0.54C20.91 0.85 21.16 1.09 21.47 1.09C22.41 1.09 23.17 1.84 23.17 2.74C23.17 3.65 22.41 4.39 21.47 4.39C21.16 4.39 20.91 4.64 20.91 4.94C20.91 5.25 21.16 5.49 21.47 5.49C22.84 5.49 23.98 4.55 24.24 3.29L31.65 3.29L31.65 8.24L1.13 8.24L1.13 3.29L9.04 3.29L10.73 3.29C11.05 3.29 11.3 3.05 11.3 2.74C11.3 2.44 11.05 2.19 10.73 2.19L9.71 2.19C9.94 1.56 10.56 1.09 11.3 1.09C12.23 1.09 12.99 1.84 12.99 2.74C12.99 3.65 12.23 4.39 11.3 4.39C10.99 4.39 10.73 4.64 10.73 4.94C10.73 5.25 10.99 5.49 11.3 5.49C12.86 5.49 14.12 4.26 14.12 2.74C14.12 1.23 12.86 0 11.3 0C9.93 0 8.79 0.94 8.53 2.19L0 2.19L0 9.34L0 31.34L32.78 31.34L32.78 9.34L32.78 2.19L24.24 2.19ZM31.65 30.24L1.13 30.24L1.13 9.34L31.65 9.34L31.65 30.24Z" fill="#FFFFFF" fill-opacity="1.000000" fill-rule="nonzero"/>
	<path d="M14.69 1.09C15.62 1.09 16.39 1.84 16.39 2.74C16.39 3.65 15.62 4.39 14.69 4.39C14.38 4.39 14.12 4.64 14.12 4.94C14.12 5.25 14.38 5.49 14.69 5.49C16.25 5.49 17.52 4.26 17.52 2.74C17.52 1.23 16.25 0 14.69 0C14.38 0 14.12 0.24 14.12 0.54C14.12 0.85 14.38 1.09 14.69 1.09Z" fill="#FFFFFF" fill-opacity="1.000000" fill-rule="nonzero"/>
	<path d="M18.08 1.09C19.02 1.09 19.78 1.84 19.78 2.74C19.78 3.65 19.02 4.39 18.08 4.39C17.77 4.39 17.52 4.64 17.52 4.94C17.52 5.25 17.77 5.49 18.08 5.49C19.64 5.49 20.91 4.26 20.91 2.74C20.91 1.23 19.64 0 18.08 0C17.77 0 17.52 0.24 17.52 0.54C17.52 0.85 17.77 1.09 18.08 1.09Z" fill="#FFFFFF" fill-opacity="1.000000" fill-rule="nonzero"/>
	<path d="M5.08 13.74L17.52 13.74C17.83 13.74 18.08 13.5 18.08 13.19C18.08 12.89 17.83 12.64 17.52 12.64L5.08 12.64C4.77 12.64 4.52 12.89 4.52 13.19C4.52 13.5 4.77 13.74 5.08 13.74Z" fill="#FFFFFF" fill-opacity="1.000000" fill-rule="nonzero"/>
	<path d="M27.69 21.44L19.21 21.44C18.9 21.44 18.65 21.69 18.65 21.99C18.65 22.3 18.9 22.54 19.21 22.54L27.69 22.54C28 22.54 28.25 22.3 28.25 21.99C28.25 21.69 28 21.44 27.69 21.44Z" fill="#FFFFFF" fill-opacity="1.000000" fill-rule="nonzero"/>
	<path d="M5.08 18.14L10.73 18.14C11.05 18.14 11.3 17.9 11.3 17.59C11.3 17.29 11.05 17.04 10.73 17.04L5.08 17.04C4.77 17.04 4.52 17.29 4.52 17.59C4.52 17.9 4.77 18.14 5.08 18.14Z" fill="#FFFFFF" fill-opacity="1.000000" fill-rule="nonzero"/>
	<path d="M27.69 25.84L22.04 25.84C21.73 25.84 21.47 26.09 21.47 26.39C21.47 26.69 21.73 26.94 22.04 26.94L27.69 26.94C28 26.94 28.25 26.69 28.25 26.39C28.25 26.09 28 25.84 27.69 25.84Z" fill="#FFFFFF" fill-opacity="1.000000" fill-rule="nonzero"/>
	<path d="M15.82 17.59C15.82 17.9 16.07 18.14 16.39 18.14L24.86 18.14C25.18 18.14 25.43 17.9 25.43 17.59C25.43 17.29 25.18 17.04 24.86 17.04L16.39 17.04C16.07 17.04 15.82 17.29 15.82 17.59Z" fill="#FFFFFF" fill-opacity="1.000000" fill-rule="nonzero"/>
	<path d="M13.96 17.98C14.06 17.88 14.12 17.74 14.12 17.59C14.12 17.45 14.06 17.31 13.96 17.2C13.75 17 13.37 17 13.16 17.2C13.06 17.31 12.99 17.45 12.99 17.59C12.99 17.74 13.06 17.88 13.16 17.98C13.27 18.09 13.41 18.14 13.56 18.14C13.71 18.14 13.85 18.09 13.96 17.98Z" fill="#FFFFFF" fill-opacity="1.000000" fill-rule="nonzero"/>
	<path d="M7.34 21.99C7.34 22.3 7.6 22.54 7.91 22.54L16.39 22.54C16.7 22.54 16.95 22.3 16.95 21.99C16.95 21.69 16.7 21.44 16.39 21.44L7.91 21.44C7.6 21.44 7.34 21.69 7.34 21.99Z" fill="#FFFFFF" fill-opacity="1.000000" fill-rule="nonzero"/>
	<path d="M5.08 22.54C5.23 22.54 5.38 22.48 5.48 22.38C5.58 22.28 5.65 22.14 5.65 21.99C5.65 21.85 5.58 21.71 5.48 21.61C5.27 21.4 4.89 21.4 4.68 21.6C4.58 21.71 4.52 21.85 4.52 21.99C4.52 22.14 4.58 22.28 4.68 22.38C4.79 22.48 4.93 22.54 5.08 22.54Z" fill="#FFFFFF" fill-opacity="1.000000" fill-rule="nonzero"/>
	<path d="M27.69 18.14C27.84 18.14 27.98 18.09 28.09 17.98C28.2 17.88 28.25 17.74 28.25 17.59C28.25 17.45 28.2 17.31 28.09 17.2C27.88 17 27.5 17 27.29 17.2C27.19 17.31 27.12 17.45 27.12 17.59C27.12 17.74 27.19 17.88 27.29 17.98C27.4 18.09 27.54 18.14 27.69 18.14Z" fill="#FFFFFF" fill-opacity="1.000000" fill-rule="nonzero"/>
	<path d="M19.21 25.84L5.08 25.84C4.77 25.84 4.52 26.09 4.52 26.39C4.52 26.69 4.77 26.94 5.08 26.94L19.21 26.94C19.52 26.94 19.78 26.69 19.78 26.39C19.78 26.09 19.52 25.84 19.21 25.84Z" fill="#FFFFFF" fill-opacity="1.000000" fill-rule="nonzero"/>
</svg>
