<svg width="32.769638" height="28.000000" viewBox="0 0 32.7696 28" fill="none" xmlns="http://www.w3.org/2000/svg" xmlns:xlink="http://www.w3.org/1999/xlink">
	<desc>
			Created with Pixso.
	</desc>
	<defs/>
	<path id="Vector" d="M32.37 8.97L8.25 0.03C7.94 -0.08 7.6 0.08 7.49 0.38C7.49 0.38 7.49 0.39 7.49 0.39L4.82 7.65C4.7 7.96 4.86 8.3 5.17 8.42L5.17 8.42L7.97 9.44L7.35 11.12C7.24 11.43 7.4 11.77 7.7 11.89L13.3 13.94L12.89 15.06C12.51 16.06 12.86 17.19 13.73 17.81L13.73 20.85L5.72 20.85C5.33 19.96 4.54 19.32 3.59 19.12L3.59 17.87C3.59 17.54 3.32 17.27 2.99 17.27L0.59 17.27C0.26 17.27 0 17.54 0 17.87L0 27.4C0 27.73 0.26 28 0.59 28L2.99 28C3.32 28 3.59 27.73 3.59 27.4L3.59 26.15C4.54 25.95 5.33 25.31 5.72 24.42L13.73 24.42L13.73 25.02C13.73 26 14.53 26.8 15.52 26.8C16.51 26.8 17.31 26 17.31 25.02L17.31 18.42C17.85 18.15 18.27 17.68 18.48 17.11L18.89 16L23.92 17.84C23.99 17.87 24.06 17.88 24.13 17.88C24.38 17.88 24.6 17.72 24.69 17.49L24.91 16.88C26.85 17.25 28.72 15.97 29.08 14.03C29.21 13.32 29.13 12.58 28.83 11.91L32.44 10.06C32.73 9.91 32.85 9.55 32.7 9.25C32.63 9.12 32.52 9.02 32.38 8.97L32.37 8.97ZM14.93 18.35L15.42 18.53C15.64 18.61 15.88 18.65 16.12 18.66L16.12 20.85L14.93 20.85L14.93 18.35ZM2.4 26.8L1.19 26.8L1.19 18.46L2.4 18.46L2.4 26.8ZM4.78 23.23C4.78 23.99 4.3 24.66 3.59 24.91L3.59 20.35C4.3 20.61 4.78 21.28 4.78 22.04L4.78 23.23ZM5.99 22.04L16.12 22.04L16.12 23.23L5.99 23.23L5.99 22.04ZM15.52 25.61C15.19 25.61 14.93 25.35 14.93 25.02L14.93 24.42L16.12 24.42L16.12 25.02C16.12 25.35 15.85 25.61 15.52 25.61ZM17.77 15.59L17.36 16.7C17.13 17.32 16.45 17.64 15.83 17.41L14.71 17C14.09 16.77 13.78 16.09 14 15.47C14 15.47 14 15.47 14 15.47L14.41 14.35L17.43 15.46L17.77 15.59ZM23.77 16.52L8.67 10.98L9.08 9.86L18.03 13.14C18.24 13.22 18.48 13.17 18.65 13.02L20.32 11.44L25.01 13.17L23.77 16.52ZM27.8 14.19C27.42 15.21 26.41 15.85 25.33 15.74L26.25 13.23L27.75 12.46C27.99 13.01 28.01 13.63 27.8 14.19ZM25.79 12.13C25.76 12.14 25.73 12.14 25.7 12.15L20.39 10.2C20.17 10.12 19.94 10.17 19.77 10.32L18.1 11.9L6.14 7.51L8.4 1.36L30.69 9.62L25.79 12.13Z" fill="#E3B873" fill-opacity="1.000000" fill-rule="nonzero"/>
	<path id="Vector 2" d="M11.65 7.91L11.13 9.33M13.94 8.75L13.41 10.17M16.16 9.57L15.64 10.99" stroke="#E3B873" stroke-opacity="1.000000" stroke-width="1.000000"/>
</svg>
