<svg width="28.000000" height="28.000000" viewBox="0 0 28 28" fill="none" xmlns="http://www.w3.org/2000/svg" xmlns:xlink="http://www.w3.org/1999/xlink">
	<desc>
			Created with Pixso.
	</desc>
	<defs/>
	<circle id="Ellipse" cx="14.000000" cy="14.000000" r="14.000000" fill="#E3B873" fill-opacity="1.000000"/>
	<path id="Vector" d="M17 8.39C18.65 8.39 20 9.74 20 11.39L20 17.39C20 19.05 18.65 20.39 17 20.39L11 20.39C9.34 20.39 8 19.05 8 17.39L8 11.39C8 9.74 9.34 8.39 11 8.39L17 8.39Z" stroke="#FFFFFF" stroke-opacity="1.000000" stroke-width="1.500000"/>
	<path id="Vector" d="M16.15 15.47C15.92 15.92 15.55 16.29 15.1 16.51C14.65 16.74 14.14 16.82 13.64 16.74C13.14 16.66 12.68 16.42 12.32 16.07C11.97 15.71 11.73 15.25 11.65 14.75C11.57 14.25 11.65 13.74 11.88 13.29C12.1 12.84 12.47 12.47 12.92 12.24C13.36 12.01 13.87 11.92 14.37 11.99C14.88 12.07 15.35 12.31 15.72 12.67C16.08 13.04 16.32 13.51 16.4 14.02C16.47 14.52 16.38 15.03 16.15 15.47Z" stroke="#FFFFFF" stroke-opacity="1.000000" stroke-width="1.500000" stroke-linejoin="round"/>
</svg>
