<svg width="114.000000" height="28.290283" viewBox="0 0 114 28.2903" fill="none" xmlns="http://www.w3.org/2000/svg" xmlns:xlink="http://www.w3.org/1999/xlink">
	<desc>
			Created with Pixso.
	</desc>
	<defs/>
	<rect id="Rectangle 6.7" y="13.099609" rx="0.771672" width="32.000000" height="1.543344" fill="#E3B873" fill-opacity="1.000000"/>
	<rect id="Rectangle 6.8" x="82.000000" y="13.099609" rx="0.771672" width="32.000000" height="1.543344" fill="#E3B873" fill-opacity="1.000000"/>
	<path id="Vector" d="M62.42 8.65L57.58 7.2C57.21 7.09 56.84 7.05 56.47 7.07L56.47 7.06L50.58 7.06L40.13 3.58L40.17 18.26L43.16 19.76L44.94 15.42L47.53 16.46L48.2 14.78L49.18 15.75L48.27 16.66C47.95 16.97 47.77 17.41 47.77 17.86C47.77 18.77 48.5 19.52 49.41 19.55C49.44 20.43 50.15 21.15 51.04 21.18C51.07 22.06 51.78 22.78 52.67 22.81C52.7 23.72 53.44 24.44 54.36 24.44C54.81 24.44 55.24 24.26 55.56 23.95L56.47 23.04L56.83 23.4C57.15 23.72 57.58 23.9 58.03 23.9C58.95 23.9 59.69 23.17 59.72 22.26C60.61 22.23 61.32 21.52 61.35 20.63C62.24 20.6 62.95 19.89 62.98 19C63.89 18.97 64.62 18.23 64.62 17.31C64.62 17.24 64.61 17.16 64.6 17.08L65.37 16.3L66.01 17.57L69.42 15.86L71.48 19.8L73.86 18.21L73.86 4.17L62.42 8.65ZM42.6 18.26L41.25 17.59L41.22 5.09L47.18 7.07L42.6 18.26ZM46.93 15.04L45.35 14.41L48.21 7.41L49.77 7.93L46.93 15.04ZM48.86 17.86C48.86 17.7 48.92 17.54 49.04 17.43L49.99 16.47C50.11 16.36 50.26 16.29 50.42 16.29C50.76 16.29 51.03 16.57 51.03 16.9C51.03 17.06 50.97 17.22 50.85 17.33L49.9 18.29C49.79 18.4 49.63 18.47 49.47 18.47C49.13 18.47 48.86 18.19 48.86 17.86ZM50.49 19.49C50.49 19.33 50.55 19.17 50.67 19.06L51.62 18.1C51.74 17.99 51.89 17.92 52.05 17.92C52.39 17.92 52.66 18.2 52.66 18.53C52.66 18.69 52.6 18.85 52.48 18.96L51.53 19.92C51.42 20.03 51.26 20.1 51.1 20.1C50.76 20.1 50.49 19.82 50.49 19.49ZM52.12 21.12C52.12 20.96 52.18 20.8 52.3 20.69L53.25 19.73C53.37 19.62 53.52 19.55 53.68 19.55C54.02 19.55 54.29 19.83 54.29 20.16C54.29 20.32 54.23 20.48 54.12 20.59L53.16 21.55C53.05 21.66 52.89 21.73 52.73 21.73C52.39 21.73 52.12 21.45 52.12 21.12ZM55.75 22.22L54.79 23.18C54.68 23.29 54.52 23.36 54.36 23.36C54.02 23.36 53.75 23.08 53.75 22.75C53.75 22.59 53.81 22.43 53.93 22.32L54.88 21.36C55 21.25 55.15 21.18 55.31 21.18C55.65 21.18 55.92 21.46 55.92 21.79C55.92 21.95 55.86 22.11 55.75 22.22ZM62.92 17.92C62.76 17.92 62.6 17.86 62.49 17.75L57.94 13.19L57.17 13.96L61.72 18.51C61.84 18.63 61.9 18.78 61.9 18.94C61.9 19.28 61.63 19.55 61.29 19.55C61.13 19.55 60.97 19.49 60.86 19.38L56.31 14.82L55.54 15.59L60.09 20.14C60.21 20.26 60.27 20.41 60.27 20.57C60.27 20.91 60 21.18 59.66 21.18C59.5 21.18 59.34 21.12 59.23 21.01L54.68 16.45L53.91 17.22L58.46 21.77C58.58 21.89 58.64 22.04 58.64 22.21C58.64 22.54 58.37 22.81 58.03 22.81C57.87 22.81 57.71 22.75 57.6 22.64L56.99 22.02C57 21.95 57.01 21.87 57.01 21.79C57.01 20.88 56.28 20.14 55.37 20.1C55.34 19.22 54.63 18.5 53.74 18.47C53.71 17.59 53 16.87 52.11 16.84C52.08 15.94 51.34 15.21 50.42 15.21C50.35 15.21 50.27 15.22 50.19 15.23L48.64 13.68L50.86 8.14L54.07 8.14L52.07 10.14C51.75 10.46 51.58 10.88 51.58 11.34C51.58 12.27 52.34 13.03 53.27 13.03C53.72 13.03 54.16 12.85 54.47 12.54L55.91 11.1C56.21 10.8 56.72 10.79 57.03 11.07L58.3 12.24C58.72 12.62 59.19 12.95 59.69 13.2L63.35 16.88C63.47 17 63.53 17.15 63.53 17.31C63.53 17.65 63.26 17.92 62.92 17.92ZM64.07 16.07L61.84 13.82C62.04 13.84 62.24 13.85 62.44 13.85L62.44 12.76C61.18 12.76 59.97 12.29 59.04 11.44L57.77 10.27C57.05 9.61 55.83 9.64 55.14 10.33L53.7 11.77C53.59 11.88 53.43 11.95 53.27 11.95C52.94 11.95 52.66 11.67 52.66 11.34C52.66 11.17 52.73 11.02 52.84 10.91L54.91 8.83C55.52 8.23 56.44 7.99 57.26 8.24L62.06 9.68L64.86 15.28L64.07 16.07ZM66.49 16.11L63.2 9.52L65.6 8.57L68.91 14.9L66.49 16.11ZM72.77 17.63L71.88 18.22L66.62 8.17L72.77 5.76L72.77 17.63Z" fill="#E3B873" fill-opacity="1.000000" fill-rule="nonzero"/>
	<circle id="Ellipse" cx="59.666134" cy="0.801025" r="0.485591" fill="#E3B873" fill-opacity="1.000000"/>
	<circle id="Ellipse" cx="47.409298" cy="23.730225" r="0.485591" fill="#E3B873" fill-opacity="1.000000"/>
	<circle id="Ellipse" cx="49.467403" cy="25.418701" r="0.485591" fill="#E3B873" fill-opacity="1.000000"/>
	<circle id="Ellipse" cx="51.816036" cy="26.657471" r="0.485591" fill="#E3B873" fill-opacity="1.000000"/>
	<circle id="Ellipse" cx="54.364864" cy="27.449951" r="0.485591" fill="#E3B873" fill-opacity="1.000000"/>
	<circle id="Ellipse" cx="62.213497" cy="1.573975" r="0.485591" fill="#E3B873" fill-opacity="1.000000"/>
	<circle id="Ellipse" cx="64.562622" cy="2.828369" r="0.485591" fill="#E3B873" fill-opacity="1.000000"/>
	<path id="Vector" d="M66.82 2.12L66.82 4.92L63.99 4.92" stroke="#E3B873" stroke-opacity="1.000000" stroke-width="1.000000" stroke-linejoin="round" stroke-linecap="round"/>
	<path id="Vector" d="M45 23.41L45 21.14L47.27 21.14" stroke="#E3B873" stroke-opacity="1.000000" stroke-width="1.000000" stroke-linejoin="round" stroke-linecap="round"/>
	<path id="Vector 2.2" d="M47.8 4.1C49.33 2.77 50.31 2.15 52.15 1.44C54.1 0.67 55.42 0.5 57.54 0.5" stroke="#E3B873" stroke-opacity="1.000000" stroke-width="1.000000" stroke-linecap="round"/>
	<path id="Vector 2.3" d="M68.4 21.59C67.26 23.37 65.13 25.11 63.4 26.07C61.57 27.08 59.6 27.65 56.99 27.79" stroke="#E3B873" stroke-opacity="1.000000" stroke-width="1.000000" stroke-linecap="round"/>
</svg>
