<svg width="112.000000" height="112.000000" viewBox="0 0 112 112" fill="none" xmlns="http://www.w3.org/2000/svg" xmlns:xlink="http://www.w3.org/1999/xlink">
	<desc>
			Created with Pixso.
	</desc>
	<defs>
		<filter id="filter_1_11116_dd" x="0.000000" y="0.000000" width="112.000000" height="112.000000" filterUnits="userSpaceOnUse" color-interpolation-filters="sRGB">
			<feFlood flood-opacity="0" result="BackgroundImageFix"/>
			<feColorMatrix in="SourceAlpha" type="matrix" values="0 0 0 0 0 0 0 0 0 0 0 0 0 0 0 0 0 0 127 0" result="hardAlpha"/>
			<feOffset dx="0" dy="10"/>
			<feGaussianBlur stdDeviation="6.66667"/>
			<feComposite in2="hardAlpha" operator="out" k2="-1" k3="1"/>
			<feColorMatrix type="matrix" values="0 0 0 0 0.92941 0 0 0 0 0.75294 0 0 0 0 0.47059 0 0 0 0.2 0"/>
			<feBlend mode="normal" in2="BackgroundImageFix" result="effect_dropShadow_1"/>
			<feBlend mode="normal" in="SourceGraphic" in2="effect_dropShadow_1" result="shape"/>
		</filter>
	</defs>
	<g filter="url(#filter_1_11116_dd)">
		<circle id="Ellipse" cx="56.000000" cy="46.000000" r="36.000000" fill="#E3B873" fill-opacity="1.000000"/>
	</g>
	<path id="Vector" d="M56.33 53.32C55.98 53.32 55.7 53.6 55.7 53.94L55.7 55.27C55.7 55.61 55.98 55.89 56.33 55.89C56.69 55.89 56.97 55.61 56.97 55.27L56.97 53.94C56.97 53.6 56.69 53.32 56.33 53.32Z" fill="#FFFFFF" fill-opacity="1.000000" fill-rule="nonzero"/>
	<path id="Vector" d="M55.65 53.68Q55.6 53.8 55.6 53.94L55.6 55.27Q55.6 55.41 55.65 55.54Q55.7 55.67 55.81 55.78Q55.92 55.88 56.04 55.93Q56.18 55.99 56.33 55.99Q56.49 55.99 56.63 55.93Q56.75 55.88 56.85 55.78Q56.97 55.67 57.02 55.54Q57.07 55.41 57.07 55.27L57.07 53.94Q57.07 53.8 57.02 53.68Q56.97 53.54 56.85 53.43Q56.75 53.33 56.63 53.28Q56.49 53.22 56.33 53.22Q56.18 53.22 56.04 53.28Q55.92 53.33 55.81 53.43Q55.7 53.54 55.65 53.68ZM55.7 53.94C55.7 53.6 55.98 53.32 56.33 53.32C56.69 53.32 56.97 53.6 56.97 53.94L56.97 55.27C56.97 55.61 56.69 55.89 56.33 55.89C55.98 55.89 55.7 55.61 55.7 55.27L55.7 53.94Z" fill="#FFFFFF" fill-opacity="1.000000" fill-rule="evenodd"/>
	<path id="Vector" d="M75.61 44.43C75.36 44.18 75.03 44.05 74.68 44.05C74.68 44.05 74.68 44.05 74.68 44.05L73.04 44.05C73.02 44.05 73.01 44.03 73 44.01C72.55 41.86 71.55 39.83 70.09 38.15C68.68 36.52 66.88 35.24 64.86 34.43C64.54 33.1 63.85 31.72 62.5 30.69C61.19 29.68 59.88 29.49 59.82 29.48C59.64 29.46 59.45 29.51 59.31 29.63C59.17 29.75 59.09 29.92 59.09 30.1L59.09 33.45L56.78 33.45C56.21 31.54 54.4 30.14 52.26 30.14C50.07 30.14 48.23 31.6 47.7 33.57C44.55 33.99 41.65 35.48 39.5 37.79C37.24 40.22 36 43.37 36 46.66C36 54.03 39.92 60.03 41.12 61.69C41.5 62.21 42.11 62.51 42.75 62.51L45.46 62.51C46.56 62.51 47.46 61.64 47.46 60.57L47.46 59.71C48.15 59.81 48.84 59.86 49.54 59.86L55.7 59.86L55.7 60.57C55.7 61.64 56.59 62.51 57.69 62.51L60.67 62.51C61.61 62.51 62.43 61.87 62.62 60.98L62.95 59.49C67.14 58.49 70.5 55.63 72.16 51.92L74.68 51.92C75.4 51.92 76 51.34 76 50.63L76 45.33C76 44.99 75.86 44.67 75.61 44.43ZM52.26 31.38C54.15 31.38 55.7 32.88 55.7 34.73C55.7 35.21 55.59 35.67 55.4 36.1L49.12 36.1C48.92 35.67 48.82 35.21 48.82 34.73C48.82 32.88 50.36 31.38 52.26 31.38ZM74.72 50.63C74.72 50.65 74.7 50.67 74.68 50.67L72.64 50.67C72.98 49.61 73.2 48.5 73.26 47.35C73.28 47.01 73.01 46.72 72.66 46.7C72.3 46.68 72 46.95 71.99 47.29C71.72 52.36 68.18 56.69 63.25 58.12L64.14 54.07C64.21 53.74 63.99 53.41 63.65 53.34C63.31 53.27 62.97 53.48 62.89 53.81L61.38 60.72C61.31 61.04 61.01 61.27 60.67 61.27L57.69 61.27C57.3 61.27 56.97 60.96 56.97 60.57L56.97 57.92C56.97 57.58 56.69 57.3 56.33 57.3C55.98 57.3 55.7 57.58 55.7 57.92L55.7 58.62L49.54 58.62C48.84 58.62 48.14 58.56 47.46 58.45L47.46 53.94C47.46 53.6 47.17 53.32 46.82 53.32C46.47 53.32 46.19 53.6 46.19 53.94L46.19 60.57C46.19 60.96 45.86 61.27 45.46 61.27L42.75 61.27C42.52 61.27 42.3 61.16 42.17 60.98C41.02 59.39 37.27 53.67 37.27 46.66C37.27 43.68 38.4 40.83 40.44 38.63C42.32 36.61 44.82 35.29 47.55 34.85C47.56 35.28 47.63 35.7 47.76 36.1L47.5 36.1C47.15 36.1 46.87 36.38 46.87 36.72C46.87 37.06 47.15 37.34 47.5 37.34L57.01 37.34C57.37 37.34 57.65 37.06 57.65 36.72C57.65 36.38 57.37 36.1 57.01 36.1L56.76 36.1C56.9 35.66 56.97 35.2 56.97 34.73C56.97 34.72 56.97 34.71 56.97 34.69L59.09 34.69L59.09 36.06C59.09 36.4 59.38 36.68 59.73 36.68C60.08 36.68 60.37 36.4 60.37 36.06L60.37 30.91C61.58 31.36 63.85 32.73 63.85 36.72C63.85 37.06 64.14 37.34 64.49 37.34C64.84 37.34 65.12 37.06 65.12 36.72C65.12 36.46 65.11 36.18 65.09 35.89C66.63 36.62 68.01 37.67 69.12 38.95C70.44 40.47 71.35 42.31 71.76 44.25C71.88 44.86 72.42 45.29 73.04 45.29L74.68 45.29C74.68 45.29 74.7 45.29 74.71 45.3C74.72 45.32 74.72 45.33 74.72 45.33L74.72 50.63L74.72 50.63Z" fill="#FFFFFF" fill-opacity="1.000000" fill-rule="nonzero"/>
	<path id="Vector" d="M75.02 43.99Q74.85 43.95 74.68 43.95L74.68 43.95L73.09 43.95Q72.99 43.45 72.85 42.97Q72.53 41.88 72.01 40.86Q71.66 40.15 71.24 39.5Q70.75 38.76 70.16 38.08Q69.84 37.7 69.49 37.35Q68.69 36.56 67.76 35.9Q67.04 35.39 66.26 34.97Q65.62 34.63 64.95 34.36Q64.54 32.72 63.56 31.55Q63.12 31.03 62.56 30.61Q62.25 30.37 61.92 30.17Q61.36 29.84 60.73 29.62Q60.41 29.5 60.1 29.44Q59.94 29.4 59.84 29.38Q59.76 29.37 59.68 29.38Q59.6 29.38 59.52 29.41Q59.44 29.43 59.37 29.47Q59.3 29.51 59.25 29.55Q59.18 29.61 59.13 29.68Q59.09 29.73 59.06 29.8Q59.03 29.87 59.01 29.95Q58.99 30.02 58.99 30.1L58.99 33.35L56.86 33.35Q56.78 33.1 56.67 32.86Q56.48 32.45 56.22 32.07Q56.04 31.81 55.82 31.58Q55.53 31.26 55.17 31Q54.87 30.77 54.54 30.6Q54.19 30.42 53.82 30.29Q53.52 30.19 53.21 30.13Q52.74 30.04 52.26 30.04Q51.77 30.04 51.3 30.13Q50.98 30.2 50.66 30.3Q50.28 30.43 49.93 30.62Q49.6 30.8 49.3 31.04Q48.93 31.31 48.63 31.65Q48.42 31.88 48.24 32.15Q47.98 32.53 47.8 32.96Q47.7 33.21 47.62 33.48Q46.36 33.66 45.17 34.05Q44.15 34.39 43.18 34.88Q42.05 35.46 41.06 36.23Q40.19 36.9 39.43 37.72Q38.43 38.8 37.7 40.03Q37.19 40.91 36.81 41.87Q36.36 43.01 36.13 44.19Q35.9 45.4 35.9 46.66Q35.9 49.24 36.53 51.91Q37.06 54.14 38.02 56.36Q38.17 56.7 38.32 57.05Q38.96 58.42 39.73 59.73Q40.38 60.84 41.04 61.75Q41.17 61.93 41.32 62.07Q41.53 62.26 41.79 62.39Q42.01 62.5 42.24 62.55Q42.49 62.61 42.75 62.61L45.46 62.61Q45.7 62.61 45.93 62.56Q46.11 62.52 46.28 62.45Q46.48 62.37 46.65 62.26Q46.81 62.15 46.94 62.02Q47.12 61.85 47.24 61.65Q47.33 61.52 47.39 61.36Q47.47 61.18 47.52 60.99Q47.56 60.78 47.56 60.57L47.56 59.82Q48.31 59.93 49.06 59.96Q49.3 59.96 49.54 59.96L55.6 59.96L55.6 60.57Q55.6 60.78 55.64 60.99Q55.68 61.18 55.76 61.36Q55.83 61.52 55.92 61.65Q56.04 61.85 56.21 62.02Q56.35 62.15 56.51 62.26Q56.68 62.37 56.88 62.45Q57.05 62.52 57.22 62.56Q57.45 62.61 57.69 62.61L60.67 62.61Q60.85 62.61 61.03 62.58Q61.2 62.55 61.38 62.49Q61.55 62.43 61.7 62.35Q61.85 62.26 61.99 62.16Q62.16 62.02 62.3 61.86Q62.38 61.76 62.45 61.65Q62.56 61.47 62.63 61.29Q62.69 61.15 62.72 61L63.03 59.57Q63.94 59.35 64.81 59.01Q65.4 58.78 65.97 58.5Q66.72 58.12 67.42 57.65Q68.02 57.26 68.57 56.8Q69.27 56.22 69.88 55.56Q70.31 55.09 70.69 54.59Q71.29 53.8 71.76 52.94Q72.01 52.49 72.22 52.02L74.68 52.02Q74.84 52.02 74.99 51.98Q75.11 51.95 75.23 51.91Q75.36 51.85 75.48 51.77Q75.58 51.7 75.68 51.61Q75.79 51.5 75.88 51.37Q75.94 51.27 75.98 51.17Q76.04 51.05 76.07 50.92Q76.1 50.78 76.1 50.63L76.1 45.33Q76.1 45.18 76.06 45.03Q76.03 44.91 75.99 44.8Q75.95 44.71 75.9 44.63Q75.81 44.48 75.68 44.35Q75.57 44.25 75.45 44.17Q75.34 44.1 75.22 44.05Q75.12 44.01 75.02 43.99ZM72.16 51.92L74.68 51.92C75.4 51.92 76 51.34 76 50.63L76 45.33C76 44.99 75.86 44.67 75.61 44.43C75.36 44.18 75.03 44.05 74.68 44.05L74.68 44.05L73.04 44.05C73.02 44.05 73.01 44.03 73 44.01C72.55 41.86 71.55 39.83 70.09 38.15C68.68 36.52 66.88 35.24 64.86 34.43C64.54 33.1 63.85 31.72 62.5 30.69C61.19 29.68 59.88 29.49 59.82 29.48C59.64 29.46 59.45 29.51 59.31 29.63C59.17 29.75 59.09 29.92 59.09 30.1L59.09 33.45L58.99 33.45L56.78 33.45C56.21 31.54 54.4 30.14 52.26 30.14C50.07 30.14 48.23 31.6 47.7 33.57C44.55 33.99 41.65 35.48 39.5 37.79C37.24 40.22 36 43.37 36 46.66C36 54.03 39.92 60.03 41.12 61.69C41.5 62.21 42.11 62.51 42.75 62.51L45.46 62.51C46.56 62.51 47.46 61.64 47.46 60.57L47.46 59.71C47.49 59.71 47.53 59.72 47.56 59.72C48.21 59.82 48.88 59.86 49.54 59.86L55.6 59.86L55.7 59.86L55.7 60.57C55.7 61.64 56.59 62.51 57.69 62.51L60.67 62.51C61.61 62.51 62.43 61.87 62.62 60.98L62.95 59.49C67.14 58.49 70.5 55.63 72.16 51.92ZM74.72 50.63L74.72 45.33C74.72 45.33 74.72 45.32 74.71 45.3C74.7 45.29 74.68 45.29 74.68 45.29L73.04 45.29C72.42 45.29 71.88 44.86 71.76 44.25C71.35 42.31 70.44 40.47 69.12 38.95C68.03 37.69 66.69 36.67 65.2 35.94C65.16 35.93 65.13 35.91 65.09 35.89C65.1 35.93 65.1 35.97 65.1 36.01C65.12 36.25 65.12 36.49 65.12 36.72C65.12 37.06 64.84 37.34 64.49 37.34C64.14 37.34 63.85 37.06 63.85 36.72C63.85 32.84 61.7 31.43 60.47 30.95C60.43 30.94 60.4 30.92 60.37 30.91L60.37 36.06C60.37 36.4 60.08 36.68 59.73 36.68C59.38 36.68 59.09 36.4 59.09 36.06L59.09 34.69L56.97 34.69C56.97 34.71 56.97 34.72 56.97 34.73C56.97 34.75 56.97 34.77 56.97 34.79C56.97 35.2 56.9 35.61 56.79 36C56.78 36.03 56.77 36.07 56.76 36.1L57.01 36.1C57.37 36.1 57.65 36.38 57.65 36.72C57.65 37.06 57.37 37.34 57.01 37.34L47.5 37.34C47.15 37.34 46.87 37.06 46.87 36.72C46.87 36.38 47.15 36.1 47.5 36.1L47.76 36.1C47.75 36.07 47.74 36.03 47.73 36C47.63 35.66 47.57 35.31 47.55 34.95C47.55 34.92 47.55 34.88 47.55 34.85C47.51 34.86 47.48 34.86 47.45 34.87C44.76 35.32 42.3 36.63 40.44 38.63C38.4 40.83 37.27 43.68 37.27 46.66C37.27 53.67 41.02 59.39 42.17 60.98C42.3 61.16 42.52 61.27 42.75 61.27L45.46 61.27C45.86 61.27 46.19 60.96 46.19 60.57L46.19 53.94C46.19 53.6 46.47 53.32 46.82 53.32C47.17 53.32 47.46 53.6 47.46 53.94L47.46 58.45C48.14 58.56 48.84 58.62 49.54 58.62L55.7 58.62L55.7 57.92C55.7 57.58 55.98 57.3 56.33 57.3C56.69 57.3 56.97 57.58 56.97 57.92L56.97 60.57C56.97 60.96 57.3 61.27 57.69 61.27L60.67 61.27C61.01 61.27 61.31 61.04 61.38 60.72L62.89 53.81C62.97 53.48 63.31 53.27 63.65 53.34C63.99 53.41 64.21 53.74 64.14 54.07L63.27 58.01L63.25 58.12C63.29 58.11 63.32 58.1 63.36 58.09C68.23 56.63 71.72 52.32 71.99 47.29C72 46.95 72.3 46.68 72.66 46.7C73.01 46.72 73.28 47.01 73.26 47.35C73.2 48.46 73 49.54 72.67 50.57C72.66 50.61 72.65 50.64 72.64 50.67L74.68 50.67C74.7 50.67 74.72 50.65 74.72 50.63L74.72 50.63ZM74.62 50.53L74.62 45.39L73.04 45.39Q72.8 45.39 72.58 45.32Q72.35 45.24 72.15 45.08Q71.94 44.91 71.82 44.69Q71.71 44.5 71.66 44.27Q71.57 43.83 71.44 43.4Q71.15 42.42 70.69 41.49Q70.38 40.87 70.01 40.3Q69.57 39.63 69.04 39.01Q68.83 38.77 68.61 38.55Q67.96 37.87 67.2 37.29Q66.71 36.92 66.19 36.6Q65.71 36.31 65.2 36.06Q65.22 36.39 65.22 36.72Q65.22 36.87 65.17 36.99Q65.12 37.12 65.01 37.23Q64.9 37.33 64.78 37.39Q64.65 37.44 64.49 37.44Q64.33 37.44 64.2 37.39Q64.07 37.33 63.97 37.23Q63.86 37.12 63.8 36.99Q63.75 36.87 63.75 36.72Q63.75 34.13 62.49 32.55L62.48 32.55Q62.27 32.28 62.02 32.05Q61.72 31.76 61.37 31.53Q61.11 31.36 60.83 31.22Q60.65 31.13 60.47 31.06L60.47 36.06Q60.47 36.2 60.42 36.33Q60.36 36.46 60.25 36.57Q60.15 36.67 60.02 36.72Q59.89 36.78 59.73 36.78Q59.57 36.78 59.44 36.72Q59.32 36.67 59.21 36.57Q59.1 36.46 59.05 36.33Q58.99 36.2 58.99 36.06L58.99 34.79L57.07 34.79Q57.07 35.07 57.03 35.35Q56.99 35.68 56.89 36L57.01 36Q57.17 36 57.31 36.06Q57.43 36.11 57.53 36.21Q57.65 36.32 57.7 36.45Q57.75 36.58 57.75 36.72Q57.75 36.87 57.7 36.99Q57.65 37.12 57.53 37.23Q57.43 37.33 57.31 37.39Q57.17 37.44 57.01 37.44L47.5 37.44Q47.34 37.44 47.21 37.39Q47.09 37.33 46.98 37.23Q46.87 37.12 46.82 36.99Q46.77 36.87 46.77 36.72Q46.77 36.58 46.82 36.45Q46.87 36.32 46.98 36.21Q47.09 36.11 47.21 36.06Q47.34 36 47.5 36L47.62 36Q47.55 35.73 47.5 35.45Q47.46 35.21 47.45 34.97Q46.4 35.14 45.41 35.49Q44.55 35.8 43.72 36.23Q42.76 36.74 41.92 37.41Q41.17 37.99 40.52 38.69Q39.63 39.65 38.98 40.76Q38.52 41.54 38.18 42.39Q37.78 43.4 37.58 44.45Q37.37 45.54 37.37 46.66Q37.37 49.09 37.97 51.61Q38.47 53.71 39.38 55.81Q39.47 56.03 39.57 56.25Q40.21 57.66 41 59.01Q41.62 60.05 42.25 60.92Q42.29 60.98 42.35 61.03Q42.4 61.08 42.47 61.11Q42.5 61.13 42.55 61.14Q42.64 61.17 42.75 61.17L45.46 61.17Q45.6 61.17 45.71 61.12Q45.82 61.08 45.9 60.99Q46 60.9 46.05 60.79Q46.09 60.69 46.09 60.57L46.09 53.94Q46.09 53.8 46.14 53.68Q46.19 53.54 46.3 53.43Q46.41 53.33 46.53 53.28Q46.66 53.22 46.82 53.22Q46.98 53.22 47.12 53.28Q47.24 53.33 47.34 53.43Q47.46 53.54 47.51 53.68Q47.56 53.8 47.56 53.94L47.56 58.37Q48.29 58.48 49.03 58.51Q49.28 58.52 49.54 58.52L55.6 58.52L55.6 57.92Q55.6 57.77 55.65 57.65Q55.7 57.52 55.81 57.41Q55.92 57.31 56.04 57.25Q56.18 57.2 56.33 57.2Q56.49 57.2 56.63 57.25Q56.75 57.31 56.85 57.41Q56.97 57.52 57.02 57.65Q57.07 57.77 57.07 57.92L57.07 60.57Q57.07 60.69 57.11 60.79Q57.16 60.9 57.25 60.99Q57.34 61.08 57.45 61.12Q57.56 61.17 57.69 61.17L60.67 61.17Q60.78 61.17 60.88 61.14Q60.98 61.11 61.06 61.04Q61.16 60.96 61.22 60.86Q61.26 60.78 61.28 60.69L62.8 53.79Q62.83 53.65 62.9 53.54Q62.98 53.42 63.12 53.34Q63.24 53.26 63.38 53.23Q63.52 53.21 63.67 53.24Q63.83 53.27 63.95 53.36Q64.06 53.43 64.14 53.55Q64.22 53.68 64.25 53.82Q64.27 53.95 64.24 54.1L63.38 57.98Q64.29 57.7 65.14 57.29Q65.89 56.93 66.6 56.46Q67.45 55.89 68.19 55.19Q68.78 54.64 69.29 54.01Q69.99 53.14 70.51 52.18Q70.85 51.55 71.11 50.88Q71.45 50 71.65 49.08Q71.84 48.19 71.89 47.28Q71.89 47.14 71.95 47.02Q72.01 46.89 72.13 46.78Q72.24 46.69 72.37 46.64Q72.5 46.59 72.66 46.6Q72.82 46.61 72.95 46.67Q73.07 46.73 73.17 46.84Q73.28 46.95 73.32 47.09Q73.37 47.21 73.36 47.36Q73.32 48.16 73.18 48.95Q73.03 49.77 72.77 50.57L74.62 50.57L74.62 50.53L74.62 50.53ZM52.26 31.38C54.15 31.38 55.7 32.88 55.7 34.73C55.7 35.21 55.59 35.67 55.4 36.1L49.12 36.1C48.92 35.67 48.82 35.21 48.82 34.73C48.82 32.88 50.36 31.38 52.26 31.38ZM49.18 36Q49.04 35.67 48.97 35.32Q48.92 35.03 48.92 34.73Q48.92 34.39 48.99 34.07Q49.05 33.76 49.18 33.47Q49.28 33.24 49.42 33.02Q49.62 32.71 49.9 32.44Q50.12 32.22 50.37 32.05Q50.64 31.87 50.96 31.74Q51.23 31.63 51.5 31.56Q51.87 31.48 52.26 31.48Q52.65 31.48 53.01 31.56Q53.29 31.63 53.56 31.74Q53.87 31.87 54.15 32.05Q54.4 32.22 54.62 32.44Q54.9 32.71 55.1 33.02Q55.23 33.24 55.34 33.47Q55.46 33.76 55.53 34.07Q55.6 34.39 55.6 34.73Q55.6 35.04 55.54 35.33Q55.48 35.67 55.33 36L49.18 36Z" fill="#FFFFFF" fill-opacity="1.000000" fill-rule="evenodd"/>
	<path id="Vector" d="M69.16 44.45C68.77 43.42 67.72 42.72 66.56 42.72C65.4 42.72 64.35 43.42 63.95 44.45C63.83 44.77 64 45.13 64.33 45.25C64.66 45.37 65.02 45.21 65.15 44.89C65.36 44.34 65.92 43.97 66.56 43.97C67.19 43.97 67.76 44.34 67.97 44.89C68.06 45.14 68.31 45.29 68.56 45.29C68.64 45.29 68.71 45.28 68.79 45.25C69.12 45.13 69.28 44.77 69.16 44.45Z" fill="#FFFFFF" fill-opacity="1.000000" fill-rule="nonzero"/>
	<path id="Vector" d="M67.03 42.66Q66.8 42.62 66.56 42.62Q66.32 42.62 66.08 42.66Q65.88 42.69 65.69 42.75Q65.44 42.83 65.2 42.95Q65.05 43.02 64.91 43.12Q64.66 43.29 64.45 43.5Q64.36 43.59 64.29 43.68Q64.11 43.9 63.98 44.15Q63.91 44.28 63.86 44.42Q63.81 44.56 63.81 44.7Q63.82 44.83 63.88 44.97Q63.94 45.1 64.04 45.19Q64.14 45.29 64.29 45.35Q64.44 45.4 64.58 45.39Q64.72 45.39 64.86 45.33Q65 45.26 65.1 45.15Q65.19 45.06 65.24 44.92Q65.29 44.78 65.37 44.66Q65.52 44.45 65.75 44.3Q65.9 44.2 66.07 44.14Q66.3 44.07 66.56 44.07Q66.81 44.07 67.04 44.14Q67.21 44.2 67.37 44.3Q67.6 44.45 67.74 44.66Q67.82 44.78 67.87 44.92Q67.91 45.03 67.98 45.11Q68.05 45.2 68.15 45.27Q68.24 45.33 68.34 45.36Q68.45 45.39 68.56 45.39Q68.63 45.39 68.68 45.38Q68.75 45.37 68.82 45.35Q68.97 45.29 69.08 45.19Q69.17 45.1 69.23 44.97Q69.3 44.83 69.3 44.7Q69.31 44.56 69.25 44.42Q69.2 44.28 69.13 44.15Q69.01 43.9 68.83 43.68Q68.75 43.59 68.67 43.5Q68.46 43.29 68.2 43.12Q68.06 43.02 67.91 42.95Q67.68 42.83 67.43 42.75Q67.23 42.69 67.03 42.66ZM69.16 44.45C68.77 43.42 67.72 42.72 66.56 42.72C65.4 42.72 64.35 43.42 63.95 44.45C63.83 44.77 64 45.13 64.33 45.25C64.66 45.37 65.02 45.21 65.15 44.89C65.36 44.34 65.92 43.97 66.56 43.97C67.19 43.97 67.76 44.34 67.97 44.89C68.06 45.14 68.31 45.29 68.56 45.29C68.64 45.29 68.71 45.28 68.79 45.25C69.12 45.13 69.28 44.77 69.16 44.45Z" fill="#FFFFFF" fill-opacity="1.000000" fill-rule="evenodd"/>
	<path id="Vector" d="M52.9 46.18L52.9 43.01C54.14 43.16 55.02 43.72 55.02 44.24C55.02 44.58 55.3 44.86 55.66 44.86C56.01 44.86 56.29 44.58 56.29 44.24C56.29 42.97 54.84 41.95 52.9 41.76L52.9 41.69C52.9 41.35 52.61 41.07 52.26 41.07C51.91 41.07 51.62 41.35 51.62 41.69L51.62 41.76C49.67 41.95 48.22 42.97 48.22 44.24C48.22 46.05 50.06 46.7 51.62 47.13L51.62 50.3C50.37 50.16 49.5 49.59 49.5 49.08C49.5 48.74 49.21 48.46 48.86 48.46C48.51 48.46 48.22 48.74 48.22 49.08C48.22 50.35 49.67 51.37 51.62 51.55L51.62 51.63C51.62 51.97 51.91 52.25 52.26 52.25C52.61 52.25 52.9 51.97 52.9 51.63L52.9 51.55C54.84 51.37 56.29 50.35 56.29 49.08C56.29 47.27 54.45 46.61 52.9 46.18ZM51.62 45.83C50.05 45.35 49.5 44.91 49.5 44.24C49.5 43.72 50.37 43.16 51.62 43.01L51.62 45.83ZM52.9 50.3L52.9 47.48C54.46 47.96 55.02 48.4 55.02 49.08C55.02 49.59 54.14 50.16 52.9 50.3Z" fill="#FFFFFF" fill-opacity="1.000000" fill-rule="nonzero"/>
	<path id="Vector" d="M52.9 43.11L52.9 46.18C54.45 46.61 56.29 47.27 56.29 49.08C56.29 50.35 54.84 51.37 52.9 51.55L52.9 51.63C52.9 51.97 52.61 52.25 52.26 52.25C51.91 52.25 51.62 51.97 51.62 51.63L51.62 51.55C49.67 51.37 48.22 50.35 48.22 49.08C48.22 48.74 48.51 48.46 48.86 48.46C49.21 48.46 49.5 48.74 49.5 49.08C49.5 49.58 50.33 50.13 51.52 50.29C51.55 50.3 51.59 50.3 51.62 50.3L51.62 47.13C50.06 46.7 48.22 46.05 48.22 44.24C48.22 42.97 49.67 41.95 51.62 41.76L51.62 41.69C51.62 41.35 51.91 41.07 52.26 41.07C52.61 41.07 52.9 41.35 52.9 41.69L52.9 41.76C54.84 41.95 56.29 42.97 56.29 44.24C56.29 44.58 56.01 44.86 55.66 44.86C55.3 44.86 55.02 44.58 55.02 44.24C55.02 43.74 54.19 43.19 53 43.02C52.96 43.02 52.93 43.01 52.9 43.01L52.9 43.11ZM53 43.12L53 46.11Q53.66 46.29 54.12 46.47Q54.78 46.72 55.23 47.03Q55.94 47.51 56.22 48.17Q56.39 48.59 56.39 49.08Q56.39 49.22 56.37 49.36Q56.31 49.71 56.12 50.03Q55.86 50.46 55.38 50.8Q54.91 51.15 54.28 51.36Q53.68 51.57 53 51.64Q52.99 51.78 52.94 51.89Q52.89 52.03 52.78 52.14Q52.67 52.24 52.55 52.29Q52.42 52.35 52.26 52.35Q52.1 52.35 51.97 52.29Q51.84 52.24 51.74 52.14Q51.63 52.03 51.57 51.89Q51.52 51.78 51.52 51.64Q50.84 51.57 50.24 51.36Q49.6 51.15 49.13 50.8Q48.65 50.46 48.4 50.03Q48.2 49.71 48.15 49.36Q48.12 49.22 48.12 49.08Q48.12 48.94 48.17 48.81Q48.23 48.68 48.34 48.57Q48.44 48.47 48.57 48.42Q48.7 48.36 48.86 48.36Q49.02 48.36 49.15 48.42Q49.28 48.47 49.38 48.57Q49.49 48.68 49.55 48.81Q49.6 48.94 49.6 49.08Q49.6 49.24 49.73 49.4Q49.88 49.58 50.14 49.74Q50.42 49.91 50.79 50.03Q51.14 50.14 51.52 50.19L51.52 47.21Q50.85 47.02 50.4 46.85Q49.74 46.59 49.28 46.29Q48.57 45.8 48.3 45.14Q48.12 44.72 48.12 44.24Q48.12 44.09 48.15 43.95Q48.2 43.61 48.4 43.29Q48.65 42.86 49.13 42.51Q49.6 42.17 50.24 41.95Q50.84 41.74 51.52 41.67Q51.52 41.54 51.57 41.42Q51.63 41.29 51.74 41.18Q51.84 41.08 51.97 41.02Q52.1 40.97 52.26 40.97Q52.42 40.97 52.55 41.02Q52.67 41.08 52.78 41.18Q52.89 41.29 52.94 41.42Q52.99 41.54 53 41.67Q53.68 41.74 54.28 41.95Q54.91 42.17 55.38 42.51Q55.86 42.86 56.12 43.29Q56.31 43.61 56.37 43.95Q56.39 44.09 56.39 44.24Q56.39 44.38 56.34 44.5Q56.29 44.64 56.18 44.75Q56.07 44.85 55.95 44.9Q55.81 44.96 55.66 44.96Q55.5 44.96 55.36 44.9Q55.24 44.85 55.14 44.75Q55.02 44.64 54.97 44.5Q54.92 44.38 54.92 44.24Q54.92 44.08 54.78 43.91Q54.64 43.73 54.37 43.57Q54.09 43.41 53.72 43.29Q53.38 43.18 53 43.12ZM49.68 44.62Q49.6 44.45 49.6 44.24Q49.6 44.08 49.73 43.91Q49.88 43.73 50.14 43.57Q50.42 43.41 50.79 43.29Q51.14 43.18 51.52 43.12L51.52 45.69Q50.47 45.36 50.03 45.03Q49.8 44.85 49.7 44.66Q49.69 44.64 49.68 44.62ZM51.62 45.73L51.62 45.83C51.59 45.82 51.55 45.81 51.52 45.8C50.03 45.33 49.5 44.9 49.5 44.24C49.5 43.74 50.33 43.19 51.52 43.02C51.55 43.02 51.59 43.01 51.62 43.01L51.62 45.73ZM52.9 47.59L52.9 50.3C52.93 50.3 52.96 50.3 53 50.29C54.19 50.13 55.02 49.58 55.02 49.08C55.02 48.41 54.49 47.98 53 47.52C52.96 47.5 52.93 47.49 52.9 47.48L52.9 47.59ZM53 47.62L53 50.19Q53.38 50.14 53.72 50.03Q54.09 49.91 54.37 49.74Q54.64 49.58 54.78 49.4Q54.92 49.24 54.92 49.08Q54.92 48.87 54.84 48.69Q54.83 48.67 54.82 48.66Q54.71 48.46 54.48 48.29Q54.04 47.95 53 47.62Z" fill="#FFFFFF" fill-opacity="1.000000" fill-rule="evenodd"/>
</svg>
