<svg width="27.992134" height="28.000000" viewBox="0 0 27.9921 28" fill="none" xmlns="http://www.w3.org/2000/svg" xmlns:xlink="http://www.w3.org/1999/xlink">
	<desc>
			Created with Pixso.
	</desc>
	<defs/>
	<path d="M26.4 21.14C25.81 20.73 25.14 20.51 24.46 20.47C21.91 18.8 20.24 17.54 19.26 16.57L16.26 13.57L18.08 11.53C18.42 11.72 18.79 11.85 19.17 11.9C19.45 11.95 19.63 11.95 19.82 11.95C20.19 11.95 20.28 11.95 20.66 12.28C20.47 12.42 20.38 12.65 20.38 12.88C20.38 13.12 20.47 13.4 20.66 13.58L22.29 15.21C22.52 15.49 22.9 15.63 23.27 15.63C23.64 15.63 24.02 15.49 24.25 15.17L27.56 11.86C27.84 11.62 27.98 11.25 27.98 10.88C27.98 10.5 27.84 10.18 27.56 9.9L25.93 8.26C25.74 8.08 25.51 7.98 25.28 7.98C25.04 7.98 24.81 8.12 24.62 8.26C24.25 7.94 24.25 7.85 24.25 7.47C24.25 7.29 24.25 7.05 24.16 6.77C24.06 6.12 23.74 5.47 23.22 4.95L21.54 3.27C20.56 2.29 20.1 1.83 18.84 1.27C16.13 0.01 13.38 0.24 9.37 2.06C9.14 2.15 9.04 2.34 9.09 2.57C9.14 2.81 9.32 2.95 9.56 2.95L10.16 2.95C12.22 2.95 13.29 2.95 15.15 4.81C15.97 5.63 15.99 6.88 15.26 7.8C15.16 7.82 15.09 7.86 15.01 7.94L12.94 10.25L11.38 8.68C9.65 6.96 8.44 5.33 7.51 3.52C7.46 2.6 7.09 1.74 6.43 1.08C5.64 0.29 4.52 -0.08 3.4 0.01C3.26 0.06 3.12 0.15 3.07 0.24C2.98 0.38 2.98 0.57 3.07 0.71L4.38 3.04C4.1 3.65 3.45 4.02 2.79 3.97L1.44 1.73C1.39 1.59 1.21 1.5 1.07 1.5C0.93 1.45 0.79 1.55 0.69 1.69C-0.42 3.37 -5.54e-5 5.61 1.67 6.77C2.25 7.19 2.9 7.42 3.56 7.46C3.57 7.47 3.58 7.47 3.59 7.47C5.41 8.4 7.04 9.62 8.76 11.34L10.47 13.01L0.55 24.08C0.18 24.45 0 24.96 0 25.48C0 25.99 0.18 26.46 0.55 26.83L1.21 27.48C1.58 27.81 2.05 28 2.51 28C2.98 28 3.49 27.81 3.87 27.44L13.77 16.35L16.65 19.23C17.63 20.2 18.88 21.93 20.56 24.44C20.62 25.34 20.99 26.18 21.64 26.83C22.34 27.53 23.27 27.9 24.25 27.9C24.39 27.9 24.53 27.9 24.62 27.9C24.76 27.9 24.9 27.81 25 27.67C25.09 27.53 25.09 27.34 25 27.2L23.64 24.92C23.97 24.31 24.58 23.94 25.28 23.98L26.58 26.22C26.63 26.36 26.81 26.46 26.95 26.46C27.14 26.41 27.28 26.36 27.37 26.22C28.49 24.54 28.03 22.3 26.4 21.14ZM15.76 4.07C14.27 2.62 13.15 2.15 11.89 2.01C14.55 1.18 16.51 1.22 18.47 2.11C19.59 2.57 19.96 2.95 20.94 3.93L22.62 5.61C22.99 5.98 23.22 6.45 23.27 6.91C23.32 7.15 23.32 7.33 23.32 7.47C23.32 7.98 23.36 8.36 23.92 8.92C24.11 9.1 24.39 9.2 24.62 9.2C24.9 9.2 25.14 9.1 25.28 8.92L26.91 10.55C27 10.64 27.05 10.74 27.05 10.88C27.05 11.02 27 11.11 26.91 11.2L23.6 14.52C23.41 14.7 23.13 14.7 22.94 14.52L21.31 12.88C21.5 12.74 21.59 12.51 21.54 12.23C21.54 12 21.45 11.72 21.26 11.53C20.7 10.97 20.33 10.92 19.82 10.92C19.68 10.92 19.49 10.92 19.26 10.88C18.75 10.83 18.33 10.6 17.95 10.22L15.95 8.22C16.97 6.96 16.88 5.19 15.76 4.07ZM1.11 2.95L2.09 4.63C2.19 4.77 2.33 4.86 2.47 4.86L2.7 4.86C3.77 4.91 4.75 4.35 5.22 3.41L5.31 3.18C5.41 3.04 5.41 2.9 5.31 2.76L4.29 0.99C4.85 1.08 5.36 1.36 5.78 1.78C6.26 2.3 6.57 2.96 6.59 3.67C6.58 3.7 6.57 3.74 6.57 3.79C6.57 4 6.55 4.21 6.5 4.42C6.32 5.09 5.9 5.68 5.31 6.07C4.38 6.68 3.12 6.68 2.19 6.03C1.21 5.33 0.79 4.07 1.11 2.95ZM9.42 10.69C8.02 9.24 6.62 8.12 5.13 7.24C5.36 7.15 5.64 7.01 5.87 6.87C6.57 6.4 7.04 5.79 7.32 5.05C8.2 6.54 9.32 7.94 10.72 9.34L12.32 10.94L11.07 12.34L9.42 10.69ZM3.21 26.74C2.84 27.11 2.23 27.16 1.86 26.78L1.21 26.18C1.02 25.99 0.93 25.76 0.93 25.52C0.93 25.24 1.02 25.01 1.25 24.78L1.52 24.48L2.19 25.15C2.28 25.24 2.37 25.29 2.51 25.29C2.65 25.29 2.75 25.24 2.84 25.15C3.03 24.96 3.03 24.68 2.84 24.5L2.13 23.79L2.75 23.1L3.49 23.84C3.59 23.94 3.68 23.98 3.82 23.98C3.96 23.98 4.05 23.94 4.15 23.84C4.33 23.66 4.33 23.38 4.15 23.19L3.37 22.41L15.37 8.99L17.32 10.95L15.4 13.1C15.34 13.12 15.3 13.16 15.25 13.21L13.38 15.31C13.33 15.36 13.29 15.42 13.27 15.49L3.21 26.74ZM14.41 15.64L15.68 14.21L18.7 17.22C19.54 18.11 20.98 19.23 23.08 20.63C22.8 20.72 22.52 20.86 22.24 21.05C21.67 21.41 21.26 21.91 20.97 22.46C20.97 22.47 20.96 22.48 20.96 22.49C20.94 22.52 20.92 22.56 20.91 22.59C20.88 22.64 20.86 22.68 20.84 22.73C20.83 22.77 20.81 22.8 20.8 22.83C20.8 22.84 20.8 22.84 20.79 22.85C20.78 22.88 20.77 22.92 20.75 22.96C20.49 22.57 20.23 22.2 19.99 21.86L20.61 21.23C20.8 21.05 20.8 20.77 20.61 20.58C20.42 20.39 20.14 20.39 19.96 20.58L19.44 21.1C19.24 20.84 19.06 20.59 18.88 20.35L19.31 19.93C19.49 19.74 19.49 19.46 19.31 19.27C19.12 19.09 18.84 19.09 18.65 19.27L18.3 19.63C17.95 19.22 17.64 18.86 17.35 18.57L14.41 15.64ZM26.91 24.96L25.93 23.28C25.84 23.14 25.7 23.05 25.56 23.05L25.32 23.05C24.25 22.96 23.27 23.56 22.8 24.5L22.71 24.73C22.62 24.87 22.62 25.01 22.71 25.15L23.74 26.92C23.18 26.83 22.66 26.55 22.24 26.13C21.77 25.62 21.47 24.97 21.44 24.28C21.45 24.25 21.45 24.21 21.45 24.17C21.45 23.58 21.64 23.03 21.97 22.56C22.17 22.28 22.42 22.03 22.71 21.84C23.18 21.51 23.69 21.37 24.25 21.37C24.81 21.37 25.37 21.56 25.84 21.88C26.81 22.58 27.23 23.84 26.91 24.96Z" fill="#E3B873" fill-opacity="1.000000" fill-rule="nonzero"/>
</svg>
