<svg width="32.844910" height="31.845215" viewBox="0 0 32.8449 31.8452" fill="none" xmlns="http://www.w3.org/2000/svg" xmlns:xlink="http://www.w3.org/1999/xlink">
	<desc>
			Created with Pixso.
	</desc>
	<defs/>
	<path id="Vector 2 (Stroke)" d="M3.13 0.63C3.13 0.42 3.31 0.25 3.53 0.25L32.19 0.25C32.41 0.25 32.59 0.42 32.59 0.63L32.59 28.25C32.59 28.46 32.41 28.63 32.19 28.63C31.97 28.63 31.79 28.46 31.79 28.25L31.79 1.01L3.53 1.01C3.31 1.01 3.13 0.84 3.13 0.63Z" fill="#FFFFFF" fill-opacity="1.000000" fill-rule="evenodd"/>
	<path id="Vector 2 (Stroke)" d="M3.13 0.63C3.13 0.84 3.31 1.01 3.53 1.01L31.79 1.01L31.79 28.25C31.79 28.46 31.97 28.63 32.19 28.63C32.41 28.63 32.59 28.46 32.59 28.25L32.59 0.63C32.59 0.42 32.41 0.25 32.19 0.25L3.53 0.25C3.31 0.25 3.13 0.42 3.13 0.63Z" stroke="#FFFFFF" stroke-opacity="1.000000" stroke-width="0.500000" stroke-linejoin="round"/>
	<path id="Arrow (Stroke)" d="M0.36 5.9L2.87 3.39C3.03 3.23 3.28 3.23 3.43 3.39L5.95 5.9C6.1 6.06 6.1 6.31 5.95 6.46C5.79 6.62 5.54 6.62 5.39 6.46L3.55 4.62L3.55 28.68L2.76 28.68L2.76 4.62L0.92 6.46C0.77 6.62 0.51 6.62 0.36 6.46C0.21 6.31 0.21 6.06 0.36 5.9Z" fill="#FFFFFF" fill-opacity="1.000000" fill-rule="evenodd"/>
	<path id="Arrow (Stroke)" d="M2.7 3.21L0.18 5.73C0.12 5.79 0.07 5.86 0.04 5.93C0.01 6.01 0 6.09 0 6.18C0 6.27 0.01 6.35 0.04 6.43C0.07 6.51 0.12 6.58 0.18 6.64C0.25 6.7 0.32 6.75 0.39 6.78C0.47 6.81 0.55 6.83 0.64 6.83C0.73 6.83 0.81 6.81 0.89 6.78C0.96 6.75 1.03 6.7 1.1 6.64L2.51 5.23L2.51 28.93L3.8 28.93L3.8 5.23L5.21 6.64C5.27 6.7 5.34 6.75 5.42 6.78C5.5 6.81 5.58 6.83 5.67 6.83C5.76 6.83 5.84 6.81 5.91 6.78C5.99 6.75 6.06 6.7 6.12 6.64C6.19 6.58 6.23 6.51 6.26 6.43C6.3 6.35 6.31 6.27 6.31 6.18C6.31 6.09 6.3 6.01 6.26 5.93C6.23 5.86 6.19 5.79 6.12 5.73L3.61 3.21C3.55 3.15 3.48 3.1 3.4 3.07C3.33 3.04 3.24 3.02 3.15 3.02C3.06 3.02 2.98 3.04 2.91 3.07C2.83 3.1 2.76 3.15 2.7 3.21ZM3.55 4.98L3.55 4.62L5.39 6.46C5.54 6.62 5.79 6.62 5.95 6.46C6.1 6.31 6.1 6.06 5.95 5.9L3.43 3.39C3.28 3.23 3.03 3.23 2.87 3.39L0.36 5.9C0.21 6.06 0.21 6.31 0.36 6.46C0.51 6.62 0.77 6.62 0.92 6.46L2.76 4.62L2.76 28.68L3.55 28.68L3.55 4.98Z" fill="#FFFFFF" fill-opacity="1.000000" fill-rule="evenodd"/>
	<path id="Arrow (Stroke)" d="M25.66 25.89L28.18 28.4C28.34 28.56 28.34 28.81 28.18 28.96L25.66 31.47C25.5 31.63 25.25 31.63 25.09 31.47C24.94 31.32 24.94 31.07 25.09 30.92L26.94 29.08L2.76 29.08L2.76 28.29L26.94 28.29L25.09 26.45C24.94 26.29 24.94 26.04 25.09 25.89C25.25 25.73 25.5 25.73 25.66 25.89Z" fill="#FFFFFF" fill-opacity="1.000000" fill-rule="evenodd"/>
	<path id="Arrow (Stroke)" d="M28.36 28.23L25.83 25.71C25.77 25.65 25.7 25.6 25.62 25.57C25.55 25.54 25.47 25.52 25.38 25.52C25.29 25.52 25.2 25.54 25.13 25.57C25.05 25.6 24.98 25.65 24.92 25.71C24.85 25.78 24.81 25.85 24.78 25.92C24.74 26 24.73 26.08 24.73 26.17C24.73 26.26 24.74 26.34 24.78 26.41C24.81 26.49 24.85 26.56 24.92 26.62L26.34 28.04L2.51 28.04L2.51 29.33L26.34 29.33L24.92 30.74C24.85 30.8 24.81 30.87 24.78 30.95C24.74 31.02 24.73 31.11 24.73 31.2C24.73 31.28 24.74 31.37 24.78 31.44C24.81 31.52 24.85 31.59 24.92 31.65C24.98 31.71 25.05 31.76 25.13 31.79C25.2 31.82 25.29 31.84 25.38 31.84C25.47 31.84 25.55 31.82 25.62 31.79C25.7 31.76 25.77 31.71 25.83 31.65L28.36 29.14C28.42 29.08 28.47 29.01 28.5 28.93C28.53 28.85 28.55 28.77 28.55 28.68C28.55 28.59 28.53 28.51 28.5 28.44C28.47 28.36 28.42 28.29 28.36 28.23ZM26.59 29.08L26.94 29.08L26.69 29.33L25.09 30.92C24.94 31.07 24.94 31.32 25.09 31.47C25.25 31.63 25.5 31.63 25.66 31.47L28.18 28.96C28.34 28.81 28.34 28.56 28.18 28.4L25.66 25.89C25.5 25.73 25.25 25.73 25.09 25.89C24.94 26.04 24.94 26.29 25.09 26.45L26.69 28.04L26.94 28.29L2.76 28.29L2.76 29.08L26.59 29.08Z" fill="#FFFFFF" fill-opacity="1.000000" fill-rule="evenodd"/>
	<path id="Vector 3 (Stroke)" d="M14.04 0.36C14.2 0.51 14.2 0.77 14.04 0.92L9.3 5.66C9.15 5.81 8.9 5.81 8.74 5.66C8.59 5.5 8.59 5.25 8.74 5.1L13.48 0.36C13.64 0.21 13.89 0.21 14.04 0.36Z" fill="#FFFFFF" fill-opacity="1.000000" fill-rule="evenodd"/>
	<path id="Vector 3 (Stroke)" d="M14.04 0.36C13.89 0.21 13.64 0.21 13.48 0.36L8.74 5.1C8.59 5.25 8.59 5.5 8.74 5.66C8.9 5.81 9.15 5.81 9.3 5.66L14.04 0.92C14.2 0.77 14.2 0.51 14.04 0.36Z" stroke="#FFFFFF" stroke-opacity="1.000000" stroke-width="0.500000" stroke-linejoin="round"/>
	<path id="Vector 3.6 (Stroke)" d="M32.34 19.19C32.5 19.34 32.5 19.59 32.34 19.75L28 24.09C27.84 24.24 27.59 24.24 27.44 24.09C27.29 23.94 27.29 23.69 27.44 23.53L31.78 19.19C31.94 19.03 32.19 19.03 32.34 19.19Z" fill="#FFFFFF" fill-opacity="1.000000" fill-rule="evenodd"/>
	<path id="Vector 3.6 (Stroke)" d="M32.34 19.19C32.19 19.03 31.94 19.03 31.78 19.19L27.44 23.53C27.29 23.69 27.29 23.94 27.44 24.09C27.59 24.24 27.84 24.24 28 24.09L32.34 19.75C32.5 19.59 32.5 19.34 32.34 19.19Z" stroke="#FFFFFF" stroke-opacity="1.000000" stroke-width="0.500000" stroke-linejoin="round"/>
	<path id="Vector 3.1 (Stroke)" d="M19.97 0.36C20.12 0.51 20.12 0.76 19.97 0.92L9.7 11.32C9.55 11.47 9.3 11.47 9.14 11.32C8.99 11.17 8.98 10.92 9.14 10.76L19.41 0.36C19.56 0.21 19.81 0.21 19.97 0.36Z" fill="#FFFFFF" fill-opacity="1.000000" fill-rule="evenodd"/>
	<path id="Vector 3.1 (Stroke)" d="M19.97 0.36C19.81 0.21 19.56 0.21 19.41 0.36L9.14 10.76C8.98 10.92 8.99 11.17 9.14 11.32C9.3 11.47 9.55 11.47 9.7 11.32L19.97 0.92C20.12 0.76 20.12 0.51 19.97 0.36Z" stroke="#FFFFFF" stroke-opacity="1.000000" stroke-width="0.500000" stroke-linejoin="round"/>
	<path id="Vector 3.5 (Stroke)" d="M32.47 12.6C32.63 12.76 32.63 13.01 32.47 13.16L22.47 23.17C22.31 23.32 22.06 23.32 21.91 23.17C21.76 23.01 21.76 22.76 21.91 22.61L31.92 12.6C32.07 12.45 32.32 12.45 32.47 12.6Z" fill="#FFFFFF" fill-opacity="1.000000" fill-rule="evenodd"/>
	<path id="Vector 3.5 (Stroke)" d="M32.47 12.6C32.32 12.45 32.07 12.45 31.92 12.6L21.91 22.61C21.76 22.76 21.76 23.01 21.91 23.17C22.06 23.32 22.31 23.32 22.47 23.17L32.47 13.16C32.63 13.01 32.63 12.76 32.47 12.6Z" stroke="#FFFFFF" stroke-opacity="1.000000" stroke-width="0.500000" stroke-linejoin="round"/>
	<path id="Vector 3.2 (Stroke)" d="M26.29 0.49C26.44 0.65 26.44 0.9 26.28 1.05L9.83 17.25C9.67 17.4 9.42 17.4 9.27 17.24C9.12 17.09 9.12 16.84 9.27 16.68L25.73 0.49C25.89 0.34 26.14 0.34 26.29 0.49Z" fill="#FFFFFF" fill-opacity="1.000000" fill-rule="evenodd"/>
	<path id="Vector 3.2 (Stroke)" d="M26.29 0.49C26.14 0.34 25.89 0.34 25.73 0.49L9.27 16.68C9.12 16.84 9.12 17.09 9.27 17.24C9.42 17.4 9.67 17.4 9.83 17.25L26.28 1.05C26.44 0.9 26.44 0.65 26.29 0.49Z" stroke="#FFFFFF" stroke-opacity="1.000000" stroke-width="0.500000" stroke-linejoin="round"/>
	<path id="Vector 3.4 (Stroke)" d="M32.47 6.42C32.63 6.57 32.63 6.82 32.47 6.98L15.89 23.56C15.73 23.72 15.48 23.72 15.33 23.56C15.17 23.41 15.17 23.16 15.33 23.01L31.92 6.42C32.07 6.26 32.32 6.26 32.47 6.42Z" fill="#FFFFFF" fill-opacity="1.000000" fill-rule="evenodd"/>
	<path id="Vector 3.4 (Stroke)" d="M32.47 6.42C32.32 6.26 32.07 6.26 31.92 6.42L15.33 23.01C15.17 23.16 15.17 23.41 15.33 23.56C15.48 23.72 15.73 23.72 15.89 23.56L32.47 6.98C32.63 6.82 32.63 6.57 32.47 6.42Z" stroke="#FFFFFF" stroke-opacity="1.000000" stroke-width="0.500000" stroke-linejoin="round"/>
	<path id="Vector 3.3 (Stroke)" d="M32.21 0.49C32.37 0.65 32.37 0.9 32.21 1.05L9.57 23.7C9.41 23.85 9.16 23.85 9.01 23.7C8.85 23.54 8.85 23.29 9.01 23.14L31.65 0.49C31.81 0.34 32.06 0.34 32.21 0.49Z" fill="#FFFFFF" fill-opacity="1.000000" fill-rule="evenodd"/>
	<path id="Vector 3.3 (Stroke)" d="M32.21 0.49C32.06 0.34 31.81 0.34 31.65 0.49L9.01 23.14C8.85 23.29 8.85 23.54 9.01 23.7C9.16 23.85 9.41 23.85 9.57 23.7L32.21 1.05C32.37 0.9 32.37 0.65 32.21 0.49Z" stroke="#FFFFFF" stroke-opacity="1.000000" stroke-width="0.500000" stroke-linejoin="round"/>
</svg>
